PathFileType	4	(X/Y/Z)	9_coords_data.trc
DataRate	CameraRate	NumFrames	NumMarkers	Units	OrigDataRate	OrigDataStartFrame	OrigNumFrames
30.0	30.0	9	21	m	30.0	31	50
Frame#	Time	THUMB_TIP	THUMB_IP	THUMB_MCP	THUMB_CMC	INDEX_TIP	INDEX_DIP	INDEX_PIP	INDEX_MCP	MIDDLE_TIP	MIDDLE_DIP	MIDDLE_PIP	MIDDLE_MCP	RING_TIP	RING_DIP	RING_PIP	RING_MCP	PINKY_TIP	PINKY_DIP	PINKY_PIP	PINKY_MCP	WRIST
X1	Y1	Z1	X2	Y2	Z2	X3	Y3	Z3	X4	Y4	Z4	X5	Y5	Z5	X6	Y6	Z6	X7	Y7	Z7	X8	Y8	Z8	X9	Y9	Z9	X10	Y10	Z10	X11	Y11	Z11	X12	Y12	Z12	X13	Y13	Z13	X14	Y14	Z14	X15	Y15	Z15	X16	Y16	Z16	X17	Y17	Z17	X18	Y18	Z18	X19	Y19	Z19	X20	Y20	Z20	X21	Y21	Z21
29	0.9999999999999956	0.48362812174869685	-0.02128849006000333	-0.17138361881966013	0.4871437036706986	-0.022427691133905414	-0.14870448954486404	0.48045721762027377	-0.029426936999599085	-0.11912203762469598	0.47933426080617403	-0.0274906022514817	-0.07457005028701502	0.5462834118607403	0.05201413492018281	-0.17780232597809187	0.535508738741934	0.04272941335338931	-0.16659070858317515	0.5199870766014967	0.0308169460249067	-0.150805241863881	0.4991382080983483	0.007847034703087563	-0.121627442940621	0.5680103812424173	0.06951051423553589	-0.15091784426587007	0.5558026506468515	0.05879190412154245	-0.1429126765018387	0.5338716373481673	0.04554429994639386	-0.12902234931665257	0.5039348361448127	0.02171342481982297	-0.10595667687007915	0.5744833365704765	0.06962987888070538	-0.12153829263134319	0.5599718109738383	0.06244337871033301	-0.11361555067168305	0.5389169285288387	0.05326899463825929	-0.10398733270960281	0.5093229763490754	0.031179900036455876	-0.08752553669414698	0.5730508868705406	0.06241719831198678	-0.08568929804951764	0.5575971844108987	0.05913473056395402	-0.07910078639877449	0.5386368059541853	0.053045226868672746	-0.07244992085184354	0.5124810863998421	0.030020481654153164	-0.06314277878776142	0.4622830810018609	-0.023011742144276925	-0.051989820119430985
30	1.0333333333333288	0.48257001439876895	-0.022606635623469207	-0.17139615613805426	0.4864156861541692	-0.023512875141466716	-0.14876013310648484	0.4800713375893341	-0.03006311052109445	-0.1190000313297882	0.4794400497157431	-0.02762235933236623	-0.07446314538953203	0.542387182550261	0.05334007988615452	-0.1799607420888094	0.5332483881498762	0.04313392283766504	-0.16811520304623873	0.5195154477558643	0.030237804704801086	-0.15146869235367233	0.5000904011565712	0.007127220522589295	-0.121431972203626	0.5625952201132697	0.07447316719604369	-0.1529321453578084	0.5523252780977748	0.062176639449889715	-0.14448680958079907	0.5327152942463456	0.04644801565206025	-0.12973999715325912	0.5049245126513389	0.020861856449675975	-0.1058827375325716	0.5708894004088289	0.07480780238559892	-0.12301614527339821	0.5576799478397525	0.0658014554163534	-0.11468571448652498	0.5381728203407206	0.05418940217418988	-0.10444793273276265	0.5101777393437151	0.030403689794966327	-0.0875589966921484	0.5711156797755694	0.06741889820230784	-0.08514357711127585	0.5562161823858007	0.062065197194633326	-0.07863643772036799	0.5380160405125083	0.05392554430066743	-0.07205518361816365	0.5131444548635699	0.02940154142203877	-0.06306291131820863	0.4622830810018609	-0.023011742144276925	-0.051989820119430985
31	1.0666666666666622	0.48183309805890934	-0.023473280332797275	-0.17140873058251926	0.4859292796949072	-0.024225553619637408	-0.148811045282763	0.479859193385921	-0.030457316765259423	-0.11892561103297639	0.47949026162443364	-0.027729493202679256	-0.07440243877440078	0.5398536455288969	0.0536632543795148	-0.1814091105023493	0.5319152590977277	0.042963728277591096	-0.16914117823714336	0.519372005882685	0.029622330904293892	-0.1519166681450943	0.5007890268476631	0.00663266217947156	-0.12126076959184884	0.5580928162512317	0.07782121590331648	-0.15415670991150698	0.549420513699835	0.06448899489433513	-0.14549397065508718	0.531684717014156	0.04710613411199782	-0.1302398821229548	0.5056658039063395	0.020256756360010786	-0.10578022153620492	0.5677693170642116	0.07830396811086593	-0.1241059230973991	0.5557015162280767	0.06804451224456154	-0.11549710504224575	0.5374837497132082	0.0548190208181053	-0.10484913158536313	0.5108332981121498	0.029809868053972233	-0.08755703681694638	0.5695557241756104	0.0706972015056212	-0.08466403339875184	0.5552225476192737	0.06388123505221976	-0.07825289846716765	0.537684525219197	0.05435095661821687	-0.07174109516356642	0.5136515864437536	0.028919858425417	-0.06299120662004998	0.4622830810018609	-0.023011742144276925	-0.051989820119430985
32	1.0999999999999952	0.4813284352933021	-0.023979416205514137	-0.1714301023243051	0.48560808751169093	-0.02463240933931199	-0.1488633529603215	0.47974030896214387	-0.030664665357731935	-0.11889668710938439	0.4794927750935514	-0.027828457214579827	-0.07437944718648914	0.5385846989518861	0.05342033232715193	-0.18232177538911465	0.5312714998595611	0.04258518702507108	-0.16978715352330576	0.519272707112694	0.0292063486329166	-0.152207463853282	0.5011866727447463	0.006344551916688035	-0.12116121277932368	0.554914163851226	0.0798086969865115	-0.1549172134458333	0.5473045543068719	0.06591061725685232	-0.1461458268729754	0.5307966683539131	0.04762065002175375	-0.13057738604214286	0.506120051027493	0.019914193818544867	-0.10568632815009871	0.5653476312674993	0.08048132505938599	-0.12496471936738107	0.554129544877249	0.06947954176101778	-0.11612643322149119	0.5368055979298143	0.055342677079240676	-0.10516240576204028	0.5112914634236432	0.02941397417339553	-0.08751439907512415	0.568506398153973	0.07264839890857422	-0.0842088414529022	0.554608240821898	0.06493447070522562	-0.07785773647451688	0.5375255904240812	0.05457967936402053	-0.07139450425943494	0.5140000896961294	0.028589595252200395	-0.06291218179682745	0.4622830810018609	-0.023011742144276925	-0.051989820119430985
33	1.1333333333333284	0.48126693870852527	-0.02441884873411415	-0.17144540518420404	0.48556232841755803	-0.024991063132552838	-0.1488794530011086	0.47971549523402823	-0.030846040299245647	-0.11887355717876269	0.47949393998241663	-0.027898203326660043	-0.07436343281976365	0.5380019763472902	0.05306678210696936	-0.18289020476334394	0.5308940553076882	0.042287777955856476	-0.17019018397575958	0.5190883840231458	0.02899912124895565	-0.15241245742123422	0.5014106504399197	0.006167865570532727	-0.12110962059280983	0.5531381190278869	0.08077199370247179	-0.15538800667242014	0.5460031569699542	0.06665745736796824	-0.1465634851276656	0.5300658882398931	0.04803172451743465	-0.13079975805547928	0.5063529341841492	0.019731557110455933	-0.10564137464781276	0.5637102999320404	0.08175400486882312	-0.12554251733231236	0.552987166043726	0.07038577099746068	-0.11655487813954912	0.5361765555627753	0.05579171488857171	-0.1053925808603885	0.511520960505975	0.029209547511766965	-0.08749814474335449	0.5680074405116998	0.07370382226370653	-0.08355393749912565	0.5543885108159576	0.0654675645407401	-0.07725403173290124	0.537510568056019	0.05472890218228155	-0.07088000647853787	0.5141814059274558	0.0284210577859364	-0.06284688948717632	0.4622830810018609	-0.023011742144276925	-0.051989820119430985
34	1.1666666666666616	0.48171042399636593	-0.02487778345404168	-0.17145368680854756	0.48584158205145334	-0.025372344219872445	-0.1488552589257769	0.4798380879621814	-0.03103746016432707	-0.11884385242664786	0.4795123550283273	-0.027910300154957546	-0.0743466079239643	0.5377045131628736	0.052854684781524	-0.18319952182287236	0.5306122808434752	0.04216260464686128	-0.17041751638078162	0.5188467729872511	0.028966355495194218	-0.1525445852777908	0.5015162605856044	0.006084604333570387	-0.12108485073228192	0.552373705939243	0.08117622682365955	-0.15565083373451116	0.5452610709171505	0.06707883348199917	-0.1467810014918467	0.5294121303185872	0.048453495587594375	-0.13092800744584798	0.5063890368256991	0.019718709533315004	-0.10562193786891572	0.562735949648267	0.0824529431062695	-0.1258641058376272	0.5521854214311366	0.07098435342093756	-0.11680001156577446	0.5355743041122668	0.05623308657068182	-0.10554608395221243	0.511574772432002	0.02916248921543685	-0.08749266123079558	0.5679624737374837	0.07414428490489788	-0.08267325750272636	0.554406744621083	0.06572436326981046	-0.07648075172705282	0.5375380330490005	0.05486837025163427	-0.07028349390708111	0.5142514573589922	0.028356335298228452	-0.06281818438483766	0.4622830810018609	-0.023011742144276925	-0.051989820119430985
35	1.1999999999999948	0.48254923114872583	-0.025359273229338286	-0.17143041176370422	0.4863721464144326	-0.025779429228057538	-0.14877629982330887	0.48006432253600884	-0.03125486500356611	-0.11879212131218297	0.4795573366811749	-0.02790672370670344	-0.07431265509237273	0.5379046691205622	0.05266593578764256	-0.1832196698888393	0.5306355755442611	0.04209499657470084	-0.17043626178554905	0.5187036131476219	0.02902200288804402	-0.1525831124153728	0.5014885459466847	0.006084425364879853	-0.12110065551258253	0.5523585957863368	0.08125977159869435	-0.1556637037429679	0.5449845051987194	0.06730378498752687	-0.14678376986289177	0.5288821275313317	0.04888639305713749	-0.13094323142699105	0.5062627039261365	0.019839902102258278	-0.10562898721593739	0.562259479716656	0.0828102814436843	-0.12594763207450732	0.5516647283037184	0.0713943454587237	-0.1168686647276479	0.5350304740286221	0.056674814693648656	-0.10560736028422502	0.5114663369114574	0.029266963747707653	-0.08748935867122831	0.5683077187709922	0.07407341135469636	-0.08169161113383983	0.5546559685760373	0.06569460163647522	-0.07565627648525663	0.5376461311975601	0.054937436091669456	-0.0696762396292322	0.5142331826950762	0.028383882052689935	-0.0627750758636757	0.4622830810018609	-0.023011742144276925	-0.051989820119430985
36	1.233333333333328	0.48364301313359587	-0.02575885296121483	-0.1713889941796557	0.4870659867985792	-0.026121384161727712	-0.14867001923760603	0.4803698916068604	-0.031431184820713276	-0.11874029611584491	0.47960192452117817	-0.027905901536230848	-0.07427826057630327	0.5383584721378666	0.052721802064864876	-0.18293290649811345	0.5307789036210506	0.04226859122160642	-0.1702332795679522	0.518540333351194	0.029299246630532405	-0.15251257609354807	0.5013283476999619	0.006213631736918801	-0.12113682066159814	0.5528210067511696	0.08120378451409604	-0.15543154994673425	0.5450232023763659	0.06746188851500345	-0.1465797398898918	0.5284608912070394	0.049366158506543134	-0.13084303266788022	0.5059737682191389	0.02012125394433739	-0.10563960476859402	0.5620359366898726	0.08303697026395984	-0.12585792639837567	0.5512900046689844	0.07174270835369789	-0.11680449650110158	0.5345180235785617	0.057148911408387626	-0.10558390293295361	0.5112081405576776	0.029523647945453257	-0.0874671977646243	0.5687853229332871	0.073739837208332	-0.0807860893914003	0.5549469154465234	0.0655505303463102	-0.07491806320281447	0.5377317104934196	0.05501043095386915	-0.06914268077217889	0.5140921674002314	0.02853635413727096	-0.06272561679757482	0.46228308100186083	-0.023011742144276925	-0.051989820119430985
37	1.2666666666666608	0.48484007115795513	-0.026082033281528916	-0.1713452370069165	0.4878113401198825	-0.026401772271292034	-0.14856214398304657	0.4807002393392468	-0.031565118585903607	-0.11870260446008951	0.47963992788204596	-0.027841413033719675	-0.07426276021447631	0.5389431295318253	0.052948305088103664	-0.18243978314880216	0.5309195202701456	0.04263825042267411	-0.1698968780940815	0.5182542630384581	0.029787783593947514	-0.15239069077248046	0.5010138080818748	0.006463662647673507	-0.12120755127412985	0.5533397231441646	0.08125391960757788	-0.1549990991285488	0.5450427122962717	0.06776939526419745	-0.1462055097463495	0.5279558080313265	0.050009897274639226	-0.13064763444798444	0.5055456172654952	0.02051349105151523	-0.10566977843992198	0.5619291610497625	0.0832463523254835	-0.12561026509635032	0.5509606883320745	0.0721115848051126	-0.11662641522512995	0.533973813621915	0.05770217621082674	-0.10549111053489946	0.5107867049040623	0.029925357313060896	-0.08744873942611209	0.5692256339005539	0.07331631755040868	-0.0800976656747292	0.5551898793803123	0.06537554407468016	-0.07435817861971417	0.5377665524057187	0.0550990320461352	-0.06873385673493815	0.5138435714688071	0.02879342719586364	-0.06268492397340641	0.46228308100186083	-0.023011742144276925	-0.051989820119430985
